<?xml version="1.0" encoding="utf-8"?>
<!-- Generator: Adobe Illustrator 25.2.0, SVG Export Plug-In . SVG Version: 6.00 Build 0)  -->
<svg version="1.1"
	 id="icon" xmlns:cc="http://creativecommons.org/ns#" xmlns:dc="http://purl.org/dc/elements/1.1/" xmlns:rdf="http://www.w3.org/1999/02/22-rdf-syntax-ns#" xmlns:svg="http://www.w3.org/2000/svg"
	 xmlns="http://www.w3.org/2000/svg" xmlns:xlink="http://www.w3.org/1999/xlink" x="0px" y="0px" width="16px" height="16px"
	 viewBox="0 0 16 16" enable-background="new 0 0 16 16" xml:space="preserve">
<path fill="#008DB6" d="M5.4437366,0.0503329C6.5091124-0.1089966,7.6317577,0.1120084,8.547349,0.6839777
	c1.1564207,0.7078028,1.9501295,1.9670163,2.0866966,3.3165407c0.074893,0.865664,0.035243,1.7357321,0.0734234,2.6021299
	c0.006608,0.7107391-0.0315714,1.4207454-0.0190897,2.1314855c-0.0359774,0.4743156,0.0117474,0.9530363-0.0624104,1.4251509
	c-0.1189451,0.7107391-0.5308514,1.3788939-1.1446724,1.7665691c-0.6953211,0.4515543-1.605773,0.543334-2.3811255,0.2540455
	c-0.6879783-0.2511082-1.2445288-0.8238115-1.4904966-1.5117903C5.4290519,10.217288,5.4341912,9.7260847,5.4202414,9.2488317
	c0.0014677-1.4677353,0.0007339-2.9354725,0.0007339-4.4032092C5.428318,4.5313702,5.4466739,4.1840773,5.6610708,3.9337027
	C5.918787,3.6818604,6.3380356,3.6730502,6.6559596,3.8059464c0.3259997,0.1585941,0.4119048,0.5550818,0.4199815,0.8854876
	c-0.004405,1.3979836-0.004405,2.7959681-0.0014677,4.1932182c0.0323067,0.45082-0.0345092,0.9412889,0.2114592,1.3458529
	c0.2371588,0.4075003,0.8120651,0.477253,1.2085514,0.2812128c0.3627129-0.2041187,0.4500866-0.662281,0.4677076-1.0440826
	c0.0029373-1.6153178,0.0007353-3.2313704,0.0014687-4.8466883C8.9585199,3.8595452,8.7059441,3.0731788,8.1523304,2.5327821
	C7.217649,1.5547808,5.5626822,1.4615326,4.4752808,2.2368855C3.7520583,2.736165,3.3239996,3.6032968,3.3093145,4.4755688
	c-0.0491936,1.4706731-0.0506618,2.9413462-0.032306,4.4120197c0.032306,0.6468611,0,1.3054695,0.1688738,1.9376469
	c0.3370142,1.3899078,1.3561325,2.5962553,2.6777568,3.1469326c0.8069239,0.3494959,1.7181101,0.42659,2.5801029,0.2701979
	c1.2548075-0.2246761,2.3987465-1.0014963,3.0566206-2.0947733c0.5029516-0.8017836,0.7114744-1.7592268,0.6975231-2.6983137
	c0.06388-0.5198383-0.0881081-1.0705147,0.1145411-1.5675926c0.2349558-0.5991364,1.2305784-0.607213,1.4853582-0.0212922
	c0.1402388,0.2951617,0.0939827,0.6299729,0.0998564,0.9456944c0.037446,0.9412899,0.0139494,1.9046059-0.2819471,2.8077154
	c-0.4434776,1.4354296-1.4302902,2.6909723-2.7115307,3.4721994c-1.1446724,0.7048645-2.5235662,1.018384-3.8598752,0.8832855
	c-1.6248617-0.1417093-3.182909-0.9478989-4.2247896-2.2034416c-0.8752081-1.033802-1.3788936-2.3657055-1.4324931-3.717433
	C1.605889,8.1467447,1.6124967,6.2428737,1.6448033,4.3404698c0.0477254-1.1990066,0.5719693-2.379657,1.4684706-3.1843786
	C3.7549953,0.5628288,4.5810099,0.1773553,5.4437366,0.0503329z"/>
<path fill="#008DB6" d="M13.0504141,3.7288516c0.6953211,0.4287932,1.3091412,1.1417363,1.3304338,1.9941833
	c0.0205593,0.5528789-0.3546352,1.0653749-0.8693342,1.252605c0.1402397-0.2768068,0.3003025-0.5660958,0.2826805-0.8869562
	c0.004406-0.3737254-0.2202711-0.6945872-0.439806-0.9772668c-0.1989784,0.2540445-0.4559612,0.4765177-0.567564,0.7871003
	c-0.107933,0.3840046,0.1262875,0.7393742,0.2599192,1.082262c-0.459631-0.212194-0.8862228-0.6453924-0.8553839-1.1857896
	C12.1884222,4.9983439,13.0026884,4.5093441,13.0504141,3.7288516z"/>
</svg>
